<?xml version="1.0" encoding="UTF-8" standalone="no"?>
<!-- Created with Inkscape (http://www.inkscape.org/) -->

<svg
   xmlns:dc="http://purl.org/dc/elements/1.1/"
   xmlns:cc="http://creativecommons.org/ns#"
   xmlns:rdf="http://www.w3.org/1999/02/22-rdf-syntax-ns#"
   xmlns:svg="http://www.w3.org/2000/svg"
   xmlns="http://www.w3.org/2000/svg"
   xmlns:sodipodi="http://sodipodi.sourceforge.net/DTD/sodipodi-0.dtd"
   xmlns:inkscape="http://www.inkscape.org/namespaces/inkscape"
   width="32"
   height="32"
   viewBox="0 0 8.4666667 8.466667"
   version="1.1"
   id="svg8"
   inkscape:version="0.92.4 (5da689c313, 2019-01-14)"
   sodipodi:docname="circle.svg"
   inkscape:export-filename="C:\Users\Raymond\Documents\projects\gdfg-jams\gdfg-jam-simplicity\simplicity\assets\sprites\circle.png"
   inkscape:export-xdpi="96"
   inkscape:export-ydpi="96">
  <defs
     id="defs2" />
  <sodipodi:namedview
     id="base"
     pagecolor="#ff00ff"
     bordercolor="#ffffff"
     borderopacity="1"
     inkscape:pageopacity="0"
     inkscape:pageshadow="2"
     inkscape:zoom="28.34375"
     inkscape:cx="16"
     inkscape:cy="16"
     inkscape:document-units="px"
     inkscape:current-layer="layer1"
     showgrid="false"
     units="px"
     borderlayer="true"
     inkscape:showpageshadow="false"
     inkscape:pagecheckerboard="true"
     inkscape:window-width="1825"
     inkscape:window-height="1057"
     inkscape:window-x="-8"
     inkscape:window-y="-8"
     inkscape:window-maximized="1" />
  <metadata
     id="metadata5">
    <rdf:RDF>
      <cc:Work
         rdf:about="">
        <dc:format>image/svg+xml</dc:format>
        <dc:type
           rdf:resource="http://purl.org/dc/dcmitype/StillImage" />
        <dc:title></dc:title>
      </cc:Work>
    </rdf:RDF>
  </metadata>
  <g
     inkscape:label="Layer 1"
     inkscape:groupmode="layer"
     id="layer1"
     transform="translate(0,-288.53333)">
    <path
       style="opacity:1;fill:#ffffff;fill-opacity:1;stroke:none;stroke-width:1;stroke-miterlimit:4;stroke-dasharray:none;stroke-opacity:1"
       d="M 16 0 A 16.000001 16.000001 0 0 0 0 16 A 16.000001 16.000001 0 0 0 16 32 A 16.000001 16.000001 0 0 0 32 16 A 16.000001 16.000001 0 0 0 16 0 z M 16 4 A 12 12 0 0 1 28 16 A 12 12 0 0 1 16 28 A 12 12 0 0 1 4 16 A 12 12 0 0 1 16 4 z "
       transform="matrix(0.26458334,0,0,0.26458334,0,288.53333)"
       id="path822" />
  </g>
</svg>
